# xmcd
#
# Track frame offsets:
#	150
#	16725
#	28420
#	41222
#	55062
#	70092
#	84280
#	97650
#	111307
#	124965
#	139975
#	153995
#	170025
#	185490
#	196047
#	209097
#
# Disc length: 2989 seconds
#
# Revision: 0
# Processed by: cddbd v1.5.2PL0 Copyright (c) Steve Scherf et al.
# Submitted via: audiograbber 1.83.01
#
DISCID=e00bab10
DTITLE=Elkie Brooks - 'Round Midnight
DYEAR=1983
DGENRE=Pop
TTITLE0=All Night Long
TTITLE1=What Kind Of Man Are You
TTITLE2=Since I Fell For You
TTITLE3=Cry Me A River
TTITLE4=Don't Explain
TTITLE5=Just For A Thrill
TTITLE6='Round Midnight
TTITLE7=Hard Times
TTITLE8=Black Coffee
TTITLE9=Travellin' Light
TTITLE10=Drinking Again
TTITLE11=Here's That Rainy Day
TTITLE12=Save Your Love For Me
TTITLE13=Don't Smoke In Bed
TTITLE14=Crazy He Calls Me
TTITLE15=Spring Can Really Hang You Up The Most
EXTD=
EXTT0=
EXTT1=
EXTT2=
EXTT3=
EXTT4=
EXTT5=
EXTT6=
EXTT7=
EXTT8=
EXTT9=
EXTT10=
EXTT11=
EXTT12=
EXTT13=
EXTT14=
EXTT15=
PLAYORDER=
